<svg style="display: none;">
    <symbol id="joystick" viewBox="0 0 16 16">
        <path d="M10 2a2 2 0 0 1-1.5 1.937v5.087c.863.083 1.5.377 1.5.726 0 .414-.895.75-2 .75s-2-.336-2-.75c0-.35.637-.643 1.5-.726V3.937A2 2 0 1 1 10 2z"/>
        <path d="M0 9.665v1.717a1 1 0 0 0 .553.894l6.553 3.277a2 2 0 0 0 1.788 0l6.553-3.277a1 1 0 0 0 .553-.894V9.665c0-.1-.06-.19-.152-.23L9.5 6.715v.993l5.227 2.178a.125.125 0 0 1 .001.23l-5.94 2.546a2 2 0 0 1-1.576 0l-5.94-2.546a.125.125 0 0 1 .001-.23L6.5 7.708l-.013-.988L.152 9.435a.25.25 0 0 0-.152.23z"/>
    </symbol>
    <symbol id="people-circle" viewBox="0 0 16 16">
        <path d="M11 6a3 3 0 1 1-6 0 3 3 0 0 1 6 0z"/>
        <path fill-rule="evenodd" d="M0 8a8 8 0 1 1 16 0A8 8 0 0 1 0 8zm8-7a7 7 0 0 0-5.468 11.37C3.242 11.226 4.805 10 8 10s4.757 1.225 5.468 2.37A7 7 0 0 0 8 1z"/>
    </symbol>
   
    <symbol id="person-fill-add" viewBox="0 0 16 16">
        <path d="M12.5 16a3.5 3.5 0 1 0 0-7 3.5 3.5 0 0 0 0 7m.5-5v1h1a.5.5 0 0 1 0 1h-1v1a.5.5 0 0 1-1 0v-1h-1a.5.5 0 0 1 0-1h1v-1a.5.5 0 0 1 1 0m-2-6a3 3 0 1 1-6 0 3 3 0 0 1 6 0"/>
        <path d="M2 13c0 1 1 1 1 1h5.256A4.5 4.5 0 0 1 8 12.5a4.5 4.5 0 0 1 1.544-3.393Q8.844 9.002 8 9c-5 0-6 3-6 4"/>
    </symbol>
   
    <symbol id="person-vcard" viewBox="0 0 16 16">
        <path d="M5 8a2 2 0 1 0 0-4 2 2 0 0 0 0 4m4-2.5a.5.5 0 0 1 .5-.5h4a.5.5 0 0 1 0 1h-4a.5.5 0 0 1-.5-.5M9 8a.5.5 0 0 1 .5-.5h4a.5.5 0 0 1 0 1h-4A.5.5 0 0 1 9 8m1 2.5a.5.5 0 0 1 .5-.5h3a.5.5 0 0 1 0 1h-3a.5.5 0 0 1-.5-.5"/>
        <path d="M2 2a2 2 0 0 0-2 2v8a2 2 0 0 0 2 2h12a2 2 0 0 0 2-2V4a2 2 0 0 0-2-2zM1 4a1 1 0 0 1 1-1h12a1 1 0 0 1 1 1v8a1 1 0 0 1-1 1H8.96q.04-.245.04-.5C9 10.567 7.21 9 5 9c-2.086 0-3.8 1.398-3.984 3.181A1 1 0 0 1 1 12z"/>
    </symbol>

    <symbol id="trash" viewBox="0 0 16 16">
        <path d="M5.5 5.5A.5.5 0 0 1 6 6v6a.5.5 0 0 1-1 0V6a.5.5 0 0 1 .5-.5zm2.5 0a.5.5 0 0 1 .5.5v6a.5.5 0 0 1-1 0V6a.5.5 0 0 1 .5-.5zm3 .5a.5.5 0 0 0-1 0v6a.5.5 0 0 0 1 0V6z"/>
        <path fill-rule="evenodd" d="M14.5 3a1 1 0 0 1-1 1H13v9a2 2 0 0 1-2 2H5a2 2 0 0 1-2-2V4h-.5a1 1 0 0 1-1-1V2a1 1 0 0 1 1-1H6a1 1 0 0 1 1-1h2a1 1 0 0 1 1 1h3.5a1 1 0 0 1 1 1v1zM4.118 4 4 4.059V13a1 1 0 0 0 1 1h6a1 1 0 0 0 1-1V4.059L11.882 4H4.118zM2.5 3V2h11v1h-11z"/>
    </symbol>
</svg>